# xmcd CD database file
#
# Track frame offsets:
#	150
#	15397
#	28837
#	41722
#	54395
#	66487
#	80115
#	95767
#	110007
#	130500
#	149617
#	167675
#
# Disc length: 2422 seconds
#
# Revision: 0
# Processed by: cddbd v1.5.1PL2 Copyright (c) Steve Scherf et al.
# Submitted via: CDex 1.70beta1
#
DISCID=ab09740c
DTITLE=Pottery Barn - Supper Club - Part I
DYEAR=2005
DGENRE=Jazz
TTITLE0=Mack The Knife-Louis Armstrong
TTITLE1=It Takes Two To Tango-Pearl Bailey
TTITLE2=Them There Eyes-Billie Holiday
TTITLE3=Knock Me A Kiss-Louis Jordan
TTITLE4=Put A Lid On It-Squirrel Nut Zippers
TTITLE5=Hard Hearted Hannah (The Vamp Of Savannah)-Ella Fitzgerald
TTITLE6=Wrapped Tigh-Coleman Hawkins
TTITLE7=Let's Do It-Eartha Kitt
TTITLE8=Tain't Nobody's Bizness If I Do-Ernestine Anderson
TTITLE9=Let's Call The Whole Thing Off-Ella Fitzgerald and Louis Armstrong
TTITLE10=These Foolish Things (Remind Me Of You)-Etta James
TTITLE11=Black Coffee-Peggy Lee
EXTD=YEAR: 2005
EXTT0=
EXTT1=
EXTT2=
EXTT3=
EXTT4=
EXTT5=
EXTT6=
EXTT7=
EXTT8=
EXTT9=
EXTT10=
EXTT11=
PLAYORDER=
